<svg width="74" height="74" viewBox="0 0 74 74" fill="none" xmlns="http://www.w3.org/2000/svg">
<path id="XMLID_547_" d="M3.8183 21.3916C8.11015 12.651 15.5489 6.10506 24.7641 2.95917C33.9795 -0.186337 43.8682 0.444817 52.6087 4.73666C61.3492 9.02851 67.8952 16.4673 71.0411 25.6825C74.1866 34.8978 73.5555 44.7865 69.2636 53.5271C67.879 56.3468 66.1412 58.9736 64.0984 61.3344C63.7044 61.7898 63.1364 62.0577 62.5344 62.0721C61.9324 62.0867 61.3522 61.8462 60.9368 61.4103C60.578 61.0338 60.1567 60.7254 59.6847 60.4936C57.4976 59.4197 54.8445 60.3254 53.7706 62.5124C53.6793 62.6983 53.5992 62.8964 53.5326 63.1014C53.34 63.6932 52.9002 64.1707 52.327 64.411C51.7538 64.6514 51.1044 64.63 50.5479 64.3527C50.5243 64.341 50.5014 64.3289 50.4785 64.3167C48.2954 63.259 45.656 64.1659 44.5856 66.3459C44.4943 66.5318 44.4142 66.7299 44.3476 66.9349C44.1548 67.527 43.7151 68.0043 43.142 68.2445C42.5689 68.4849 41.9194 68.4636 41.3629 68.1862C41.3395 68.1746 41.3167 68.1626 41.2938 68.1504C39.1107 67.0925 36.4711 67.9993 35.4006 70.1795C35.1561 70.6773 35.0092 71.2095 34.9636 71.7612C34.9161 72.3353 34.639 72.8659 34.1946 73.2326C33.7504 73.5994 33.177 73.771 32.6043 73.7089C28.3895 73.2518 24.3082 72.0651 20.4732 70.182C11.7327 65.8901 5.1867 58.4514 2.04081 49.2362C-1.1047 40.0208 -0.473545 30.1321 3.8183 21.3916Z" fill="#774E2E"/>
</svg>
